<?xml version="1.0"?>
<!--
	Sources (public domain):
		- https://commons.wikimedia.org/wiki/File:SuitSpades.svg
		- https://commons.wikimedia.org/wiki/File:SuitHearts.svg
		- https://commons.wikimedia.org/wiki/File:SuitDiamonds.svg
		- https://commons.wikimedia.org/wiki/File:SuitClubs.svg
		- https://commons.wikimedia.org/wiki/File:English_pattern_playing_cards_deck.svg
-->
<svg version="1.1" width="5100" height="2310" xmlns="http://www.w3.org/2000/svg" viewBox="0 0 1700 770">
	<defs>
		<g id="card">
			<rect x="0" y="0" width="120" height="180" rx="10" ry="10" fill="white" stroke="black" />
		</g>
		<g id="suit-spades" transform="translate(-300.375,-343.5)">
			<path
				style="fill:#000000;fill-opacity:1;fill-rule:nonzero;stroke:none;stroke-width:1;stroke-linecap:round;stroke-linejoin:round;stroke-miterlimit:4;stroke-dasharray:3, 3;stroke-dashoffset:0;stroke-opacity:1"
				d="M 420.37498,349.55102 C 360.40052,390.08152 320.37505,467.57634 320.375,514.71623 C 320.375,539.21657 340.29885,560.81235 366.92151,560.81235 C 388.48053,560.81235 406.86151,541.23743 406.86146,514.26579 C 406.86146,510.20054 408.9958,508.40994 410.76536,508.40994 C 413.08604,508.40994 415.42002,511.71285 415.42002,518.01954 C 415.42002,533.65083 407.57185,573.31705 396.95155,597.44898 C 403.08128,595.63666 411.25603,593.8454 420.37498,593.8454 C 429.49402,593.8454 437.81882,595.63666 443.94856,597.44898 C 433.32825,573.31705 425.48008,533.65083 425.48008,518.01954 C 425.48008,511.71285 427.81406,508.40994 430.13474,508.40994 C 431.9043,508.40994 433.88849,510.20054 433.88849,514.26579 C 433.88854,541.23743 452.41957,560.81235 473.97859,560.81235 C 500.60125,560.81235 520.375,539.21657 520.375,514.71623 C 520.37505,467.57634 480.34948,390.08152 420.37498,349.55102 z"
			/>
		</g>
		<g id="suit-hearts" transform="translate(-288.15635,-348.0625)">
			<path
				style="opacity:1;fill:#dd1a1e;fill-opacity:1;stroke:none;stroke-width:0.2;stroke-linecap:square;stroke-linejoin:round;stroke-miterlimit:3.9994173;stroke-dasharray:none;stroke-opacity:1"
				d="M 352.8827,357.0625 C 314.8623,357.0625 300.05446,382.83029 300.05446,404.94657 C 300.05446,473.68557 361.30309,555.43738 408.18327,599.0625 C 455.0631,555.43738 516.25824,473.68557 516.25824,404.94657 C 516.25824,382.83029 501.45023,357.0625 463.42998,357.0625 C 432.79932,357.0625 413.07369,377.65274 413.07369,398.82 C 413.07369,405.21367 415.04039,412.95412 408.18327,412.95412 C 401.32596,412.95412 403.23901,405.21367 403.23901,398.82 C 403.23901,377.65274 383.51321,357.0625 352.8827,357.0625 z"
			/>
		</g>
		<g id="suit-diamonds" transform="translate(-288.15635,-348.0625)">
			<path
				id="path3200"
				d="M 408.15635,352.45099 C 385.76859,400.21284 352.76072,442.26342 308.15635,478.0625 C 352.76072,513.86156 385.76859,555.91215 408.15635,603.674 C 430.54411,555.91215 463.55198,513.86156 508.15635,478.0625 C 463.55198,442.26342 430.54411,400.21284 408.15635,352.45099 z"
				style="fill:#dd1a1e;fill-opacity:1;stroke:none;stroke-width:0.5;stroke-linecap:square;stroke-linejoin:round;stroke-miterlimit:3.9994173;stroke-dasharray:none;stroke-opacity:1"
			/>
		</g>
		<g id="suit-clubs" transform="translate(-288.15635,-348.0625)">
			<path
				style="fill:#000000;fill-opacity:1;stroke:none;stroke-width:2;stroke-linecap:square;stroke-linejoin:round;stroke-miterlimit:3.9994173;stroke-dasharray:none;stroke-opacity:1"
				d="M 408.15639,368.79905 C 379.39014,368.79906 356.02769,392.16149 356.02769,420.92775 C 356.02772,441.41782 367.85955,459.15021 385.07688,467.65086 C 390.25818,470.20901 384.60395,476.8313 380.79941,472.53939 C 371.24485,461.76088 357.31062,454.95947 341.78513,454.95947 C 313.01888,454.95946 289.65635,478.32191 289.65635,507.08817 C 289.65635,535.85443 313.01903,559.16987 341.78513,559.16987 C 370.33092,559.16987 393.61306,536.20881 393.91384,507.74624 C 393.96721,502.69704 401.7167,502.17398 401.7167,508.96838 C 401.7167,519.66771 391.43054,576.49172 385.92297,587.32595 C 391.9345,585.8101 401.95338,584.55266 408.15639,584.55265 C 414.35941,584.55266 424.37829,585.8101 430.38982,587.32595 C 424.88225,576.49172 414.59609,519.66771 414.59609,508.96838 C 414.59609,502.17398 422.34558,502.69704 422.39895,507.74624 C 422.69973,536.20881 445.98193,559.16987 474.52765,559.16987 C 503.29392,559.16987 526.65632,535.85443 526.65635,507.08817 C 526.65635,478.32191 503.29392,454.95946 474.52765,454.95947 C 459.00226,454.95947 445.06794,461.76088 435.51338,472.53939 C 431.70884,476.8313 426.05461,470.20901 431.23591,467.65086 C 448.45324,459.15021 460.28507,441.41782 460.28509,420.92775 C 460.28509,392.16149 436.92265,368.79906 408.15639,368.79905 z"
			/>
		</g>
		<g id="number-a" transform="translate(0, -542.36208)">
			<path d="m 27.5,542.36218 -9,50 5,0 2.34375,-13 8.3125,0 2.34375,13 5,0 -9,-50 -5,0 z m 2.5,13.90625 3.25,18.09375 -6.5,0 3.25,-18.09375 z" />
		</g>
		<g id="number-2" transform="translate(0, -542.36208)">
			<path d="m 30,542.36208 c -5.54,0 -10,4.46 -10,10 l 0,5 5,0 0,-5 c 0,-2.77 2.23,-5 5,-5 2.77,0 5,2.23 5,5 l 0,5 c 0,1.1275 -0.37508,3.0654 -1,3.9 -4.46327,9.10415 -9.27824,17.12865 -14,26.1 l 0,5 10,0 10,0 0,-5 0,-5 -5,0 0,5 -5,0 -4.5,0 c 4.48873,-7.91544 8.21831,-15.57184 12.5,-23.6 1.25012,-1.6693 2,-4.1448 2,-6.4 l 0,-5 c 0,-5.54 -4.46,-10 -10,-10 z" />
		</g>
		<g id="number-3" transform="translate(0, -542.36208)">
			<path d="m 30,542.36208 c -5.54,0 -10,4.46 -10,10 l 0,5 5,0 0,-5 c 0,-2.77 2.23,-5 5,-5 2.77,0 5,2.23 5,5 l 0,5 c 0,2.77 -2.23,5 -5,5 l -5,0 0,5 5,0 c 2.77,0 5,2.23 5,5 l 0,10 c 0,2.77 -2.23,5 -5,5 -2.77,0 -5,-2.23 -5,-5 l 0,-5 -5,0 0,5 c 0,5.54 4.46,10 10,10 5.54,0 10,-4.46 10,-10 l 0,-10 c 0,-3.0036 -1.32295,-5.67 -3.40625,-7.5 2.0833,-1.83 3.40625,-4.4964 3.40625,-7.5 l 0,-5 c 0,-5.54 -4.46,-10 -10,-10 z" />
		</g>
		<g id="number-4" transform="translate(0, -542.36208)">
			<path d="m 30,542.36208 -10,35.00001 0,4.99999 12,0 0,10 5,0 0,-10 3,0 0,-4.99999 -3,0 0,-14.99999 -5,0 0,14.99999 -6.8,0 9.99999,-35.00001 z" />
		</g>
		<g id="number-5" transform="translate(0, -542.36208)">
			<path d="m 20,542.36208 0,14.99999 0,5 10,0 c 2.77,0 5.00001,2.23 5.00001,5.00005 l 0,14.99996 c 0,2.77001 -2.23001,5.00001 -5.00001,5.00001 -2.77,0 -5,-2.23 -5,-5.00001 l 0,-4.99999 -5,0 0,4.99999 c 0,5.54 4.46,10 10,10 5.54001,0 10,-4.46 10,-10 l 0,-14.99996 c 0,-5.54005 -4.45999,-10.00005 -10,-10.00005 l -5,0 0,-9.99998 5,0 10,0 0,-5.00001 -10,0 -5,0 z" />
		</g>
		<g id="number-6" transform="translate(0, -542.36208)">
			<path d="m 30,542.36208 c -5.54,0 -10,4.46 -10,10 l 0,20 0,10 c 0,5.54 4.46,10 10,10 5.54,0 10,-4.46 10,-10 l 0,-10 c 0,-5.54 -4.46,-10 -10,-10 -1.82264,0 -3.53152,0.49855 -5,1.34375 l 0,-11.34375 c 0,-2.77 2.23,-5 5,-5 2.77,0 5,2.23 5,5 l 0,1 5,0 0,-1 c 0,-5.54 -4.46,-10 -10,-10 z m 0,25 c 2.77,0 5,2.23 5,5 l 0,10 c 0,2.77 -2.23,5 -5,5 -2.77,0 -5,-2.23 -5,-5 l 0,-10 c 0,-2.77 2.23,-5 5,-5 z" />
		</g>
		<g id="number-7" transform="translate(0, -542.36208)">
			<path d="m 20,542.36208 0,5 0,5 5,0 0,-5 10,0 -10,45 5,0 10,-45 0,-5 -20,0 z" />
		</g>
		<g id="number-8" transform="translate(0, -542.36208)">
			<path d="m 30,542.36208 c -5.54,0 -10,4.46 -10,10 l 0,5 c 0,3.0036 1.323,5.67 3.4063,7.5 -2.0833,1.83 -3.4063,4.4964 -3.4063,7.5 l 0,10 c 0,5.54 4.46,10 10,10 5.54,0 10,-4.46 10,-10 l 0,-10 c 0,-3.0036 -1.323,-5.67 -3.4062,-7.5 2.0832,-1.83 3.4062,-4.4964 3.4062,-7.5 l 0,-5 c 0,-5.54 -4.46,-10 -10,-10 z m 0,5 c 2.77,0 5,2.23 5,5 l 0,5 c 0,2.77 -2.23,5 -5,5 -2.77,0 -5,-2.23 -5,-5 l 0,-5 c 0,-2.77 2.23,-5 5,-5 z m 0,20 c 2.77,0 5,2.23 5,5 l 0,10 c 0,2.77 -2.23,5 -5,5 -2.77,0 -5,-2.23 -5,-5 l 0,-10 c 0,-2.77 2.23,-5 5,-5 z" />
		</g>
		<g id="number-9" transform="translate(0, -542.36208)">
			<path d="m 30,592.36208 c 5.54,0 10,-4.46 10,-10 l 0,-20 0,-10 c 0,-5.54 -4.46,-10 -10,-10 -5.54,0 -10,4.46 -10,10 l 0,10 c 0,5.54 4.46,10 10,10 1.8226,0 3.5315,-0.4986 5,-1.3438 l 0,11.3438 c 0,2.77 -2.23,5 -5,5 -2.77,0 -5,-2.23 -5,-5 l 0,-1 -5,0 0,1 c 0,5.54 4.46,10 10,10 z m 0,-25 c -2.77,0 -5,-2.23 -5,-5 l 0,-10 c 0,-2.77 2.23,-5 5,-5 2.77,0 5,2.23 5,5 l 0,10 c 0,2.77 -2.23,5 -5,5 z" />
		</g>
		<g id="number-10" transform="translate(15, -520)">
		  <path d="m 10,80 -5,7 0,7 5,-7 0,43 5,0 0,-50 -5,0 z" transform="translate(0,440)" />
		  <path d="m 30,520.00002 c -5.54,0 -10,4.46 -10,10 l 0,30 c 0,5.54 4.46,10 10,10 5.54,0 10,-4.46 10,-10 l 0,-30 c 0,-5.54 -4.46,-10 -10,-10 z m 0,5 c 2.77,0 5,2.23 5,5 l 0,30 c 0,2.77 -2.23,5 -5,5 -2.77,0 -5,-2.23 -5,-5 l 0,-30 c 0,-2.77 2.23,-5 5,-5 z" />
		</g>
		<g id="number-j" transform="translate(0, -542.36208)">
			<path d="m 30,542.36218 0,5 5,0 0,35 c 0,2.76142 -2.238576,5 -5,5 -2.761424,0 -5,-2.23858 -5,-5 l 0,-5 -5,0 0,5 c 0,5.52285 4.477153,10 10,10 5.522847,0 10,-4.47715 10,-10 l 0,-40 z" />
		</g>
		<g id="number-q" transform="translate(0, -542.36208)">
			<path d="m 30,542.36218 c -5.522847,0 -10,4.47715 -10,10 l 0,30 c 0,5.52285 4.477153,10 10,10 0.433748,0 0.862064,-0.0402 1.28125,-0.0937 1.712866,3.0495 4.972162,5.09375 8.71875,5.09375 l 0,-5 c -1.639595,0 -3.088189,-0.81201 -4,-2.03125 2.424412,-1.82477 4,-4.70065 4,-7.96875 l 0,-30 c 0,-5.52285 -4.477153,-10 -10,-10 z m 0,5 c 2.761424,0 5,2.23858 5,5 l 0,30 c 0,0.71573 -0.166604,1.38439 -0.4375,2 -1.274659,-4.05645 -5.085329,-7 -9.5625,-7 l 0,-25 c 0,-2.76142 2.238576,-5 5,-5 z m -5,35 c 2.761424,0 5,2.23858 5,5 -2.761424,0 -5,-2.23858 -5,-5 z" />
		</g>
		<g id="number-k" transform="translate(0, -542.36208)">
			<path d="m 20,542.36218 v 30 20 h 5 v -15 l 3,-7 7,22 h 5 l -9,-28 9,-22 h -5 l -10,24 v -24 z" />
		</g>
	</defs>
	<g fill="#00000" transform="translate(0, 10)">
		<g transform="translate(10, 0)">
			<use href="#card" />
			<use href="#number-a" transform="translate(-5, 10) scale(0.7)" />
			<use href="#number-a" transform="translate(120, 180) rotate(180) translate(-5, 10) scale(0.7)" />
			<use href="#suit-spades" transform="translate(60, 90) scale(0.3) translate(-120, -130)" />
		</g>
		<g transform="translate(140, 0)">
			<use href="#card" />
			<use href="#number-2" transform="translate(-5, 10) scale(0.7)" />
			<use href="#number-2" transform="translate(120, 180) rotate(180) translate(-5, 10) scale(0.7)" />
			<use href="#suit-spades" transform="translate(60, 90) scale(0.3) translate(-120, -130)" />
		</g>
		<g transform="translate(270, 0)">
			<use href="#card" />
			<use href="#number-3" transform="translate(-5, 10) scale(0.7)" />
			<use href="#number-3" transform="translate(120, 180) rotate(180) translate(-5, 10) scale(0.7)" />
			<use href="#suit-spades" transform="translate(60, 90) scale(0.3) translate(-120, -130)" />
		</g>
		<g transform="translate(400, 0)">
			<use href="#card" />
			<use href="#number-4" transform="translate(-5, 10) scale(0.7)" />
			<use href="#number-4" transform="translate(120, 180) rotate(180) translate(-5, 10) scale(0.7)" />
			<use href="#suit-spades" transform="translate(60, 90) scale(0.3) translate(-120, -130)" />
		</g>
		<g transform="translate(530, 0)">
			<use href="#card" />
			<use href="#number-5" transform="translate(-5, 10) scale(0.7)" />
			<use href="#number-5" transform="translate(120, 180) rotate(180) translate(-5, 10) scale(0.7)" />
			<use href="#suit-spades" transform="translate(60, 90) scale(0.3) translate(-120, -130)" />
		</g>
		<g transform="translate(660, 0)">
			<use href="#card" />
			<use href="#number-6" transform="translate(-5, 10) scale(0.7)" />
			<use href="#number-6" transform="translate(120, 180) rotate(180) translate(-5, 10) scale(0.7)" />
			<use href="#suit-spades" transform="translate(60, 90) scale(0.3) translate(-120, -130)" />
		</g>
		<g transform="translate(790, 0)">
			<use href="#card" />
			<use href="#number-7" transform="translate(-5, 10) scale(0.7)" />
			<use href="#number-7" transform="translate(120, 180) rotate(180) translate(-5, 10) scale(0.7)" />
			<use href="#suit-spades" transform="translate(60, 90) scale(0.3) translate(-120, -130)" />
		</g>
		<g transform="translate(920, 0)">
			<use href="#card" />
			<use href="#number-8" transform="translate(-5, 10) scale(0.7)" />
			<use href="#number-8" transform="translate(120, 180) rotate(180) translate(-5, 10) scale(0.7)" />
			<use href="#suit-spades" transform="translate(60, 90) scale(0.3) translate(-120, -130)" />
		</g>
		<g transform="translate(1050, 0)">
			<use href="#card" />
			<use href="#number-9" transform="translate(-5, 10) scale(0.7)" />
			<use href="#number-9" transform="translate(120, 180) rotate(180) translate(-5, 10) scale(0.7)" />
			<use href="#suit-spades" transform="translate(60, 90) scale(0.3) translate(-120, -130)" />
		</g>
		<g transform="translate(1180, 0)">
			<use href="#card" />
			<use href="#number-10" transform="translate(-5, 10) scale(0.7)" />
			<use href="#number-10" transform="translate(120, 180) rotate(180) translate(-5, 10) scale(0.7)" />
			<use href="#suit-spades" transform="translate(60, 90) scale(0.3) translate(-120, -130)" />
		</g>
		<g transform="translate(1310, 0)">
			<use href="#card" />
			<use href="#number-j" transform="translate(-5, 10) scale(0.7)" />
			<use href="#number-j" transform="translate(120, 180) rotate(180) translate(-5, 10) scale(0.7)" />
			<use href="#suit-spades" transform="translate(60, 90) scale(0.3) translate(-120, -130)" />
		</g>
		<g transform="translate(1440, 0)">
			<use href="#card" />
			<use href="#number-q" transform="translate(-5, 10) scale(0.7)" />
			<use href="#number-q" transform="translate(120, 180) rotate(180) translate(-5, 10) scale(0.7)" />
			<use href="#suit-spades" transform="translate(60, 90) scale(0.3) translate(-120, -130)" />
		</g>
		<g transform="translate(1570, 0)">
			<use href="#card" />
			<use href="#number-k" transform="translate(-5, 10) scale(0.7)" />
			<use href="#number-k" transform="translate(120, 180) rotate(180) translate(-5, 10) scale(0.7)" />
			<use href="#suit-spades" transform="translate(60, 90) scale(0.3) translate(-120, -130)" />
		</g>
	</g>
	<g fill="#dd1a1e" transform="translate(0, 200)">
		<g transform="translate(10, 0)">
			<use href="#card" />
			<use href="#number-a" transform="translate(-5, 10) scale(0.7)" />
			<use href="#number-a" transform="translate(120, 180) rotate(180) translate(-5, 10) scale(0.7)" />
			<use href="#suit-hearts" transform="translate(60, 90) scale(0.3) translate(-120, -130)" />
		</g>
		<g transform="translate(140, 0)">
			<use href="#card" />
			<use href="#number-2" transform="translate(-5, 10) scale(0.7)" />
			<use href="#number-2" transform="translate(120, 180) rotate(180) translate(-5, 10) scale(0.7)" />
			<use href="#suit-hearts" transform="translate(60, 90) scale(0.3) translate(-120, -130)" />
		</g>
		<g transform="translate(270, 0)">
			<use href="#card" />
			<use href="#number-3" transform="translate(-5, 10) scale(0.7)" />
			<use href="#number-3" transform="translate(120, 180) rotate(180) translate(-5, 10) scale(0.7)" />
			<use href="#suit-hearts" transform="translate(60, 90) scale(0.3) translate(-120, -130)" />
		</g>
		<g transform="translate(400, 0)">
			<use href="#card" />
			<use href="#number-4" transform="translate(-5, 10) scale(0.7)" />
			<use href="#number-4" transform="translate(120, 180) rotate(180) translate(-5, 10) scale(0.7)" />
			<use href="#suit-hearts" transform="translate(60, 90) scale(0.3) translate(-120, -130)" />
		</g>
		<g transform="translate(530, 0)">
			<use href="#card" />
			<use href="#number-5" transform="translate(-5, 10) scale(0.7)" />
			<use href="#number-5" transform="translate(120, 180) rotate(180) translate(-5, 10) scale(0.7)" />
			<use href="#suit-hearts" transform="translate(60, 90) scale(0.3) translate(-120, -130)" />
		</g>
		<g transform="translate(660, 0)">
			<use href="#card" />
			<use href="#number-6" transform="translate(-5, 10) scale(0.7)" />
			<use href="#number-6" transform="translate(120, 180) rotate(180) translate(-5, 10) scale(0.7)" />
			<use href="#suit-hearts" transform="translate(60, 90) scale(0.3) translate(-120, -130)" />
		</g>
		<g transform="translate(790, 0)">
			<use href="#card" />
			<use href="#number-7" transform="translate(-5, 10) scale(0.7)" />
			<use href="#number-7" transform="translate(120, 180) rotate(180) translate(-5, 10) scale(0.7)" />
			<use href="#suit-hearts" transform="translate(60, 90) scale(0.3) translate(-120, -130)" />
		</g>
		<g transform="translate(920, 0)">
			<use href="#card" />
			<use href="#number-8" transform="translate(-5, 10) scale(0.7)" />
			<use href="#number-8" transform="translate(120, 180) rotate(180) translate(-5, 10) scale(0.7)" />
			<use href="#suit-hearts" transform="translate(60, 90) scale(0.3) translate(-120, -130)" />
		</g>
		<g transform="translate(1050, 0)">
			<use href="#card" />
			<use href="#number-9" transform="translate(-5, 10) scale(0.7)" />
			<use href="#number-9" transform="translate(120, 180) rotate(180) translate(-5, 10) scale(0.7)" />
			<use href="#suit-hearts" transform="translate(60, 90) scale(0.3) translate(-120, -130)" />
		</g>
		<g transform="translate(1180, 0)">
			<use href="#card" />
			<use href="#number-10" transform="translate(-5, 10) scale(0.7)" />
			<use href="#number-10" transform="translate(120, 180) rotate(180) translate(-5, 10) scale(0.7)" />
			<use href="#suit-hearts" transform="translate(60, 90) scale(0.3) translate(-120, -130)" />
		</g>
		<g transform="translate(1310, 0)">
			<use href="#card" />
			<use href="#number-j" transform="translate(-5, 10) scale(0.7)" />
			<use href="#number-j" transform="translate(120, 180) rotate(180) translate(-5, 10) scale(0.7)" />
			<use href="#suit-hearts" transform="translate(60, 90) scale(0.3) translate(-120, -130)" />
		</g>
		<g transform="translate(1440, 0)">
			<use href="#card" />
			<use href="#number-q" transform="translate(-5, 10) scale(0.7)" />
			<use href="#number-q" transform="translate(120, 180) rotate(180) translate(-5, 10) scale(0.7)" />
			<use href="#suit-hearts" transform="translate(60, 90) scale(0.3) translate(-120, -130)" />
		</g>
		<g transform="translate(1570, 0)">
			<use href="#card" />
			<use href="#number-k" transform="translate(-5, 10) scale(0.7)" />
			<use href="#number-k" transform="translate(120, 180) rotate(180) translate(-5, 10) scale(0.7)" />
			<use href="#suit-hearts" transform="translate(60, 90) scale(0.3) translate(-120, -130)" />
		</g>
	</g>
	<g fill="#dd1a1e" transform="translate(0, 390)">
		<g transform="translate(10, 0)">
			<use href="#card" />
			<use href="#number-a" transform="translate(-5, 10) scale(0.7)" />
			<use href="#number-a" transform="translate(120, 180) rotate(180) translate(-5, 10) scale(0.7)" />
			<use href="#suit-diamonds" transform="translate(60, 90) scale(0.3) translate(-120, -130)" />
		</g>
		<g transform="translate(140, 0)">
			<use href="#card" />
			<use href="#number-2" transform="translate(-5, 10) scale(0.7)" />
			<use href="#number-2" transform="translate(120, 180) rotate(180) translate(-5, 10) scale(0.7)" />
			<use href="#suit-diamonds" transform="translate(60, 90) scale(0.3) translate(-120, -130)" />
		</g>
		<g transform="translate(270, 0)">
			<use href="#card" />
			<use href="#number-3" transform="translate(-5, 10) scale(0.7)" />
			<use href="#number-3" transform="translate(120, 180) rotate(180) translate(-5, 10) scale(0.7)" />
			<use href="#suit-diamonds" transform="translate(60, 90) scale(0.3) translate(-120, -130)" />
		</g>
		<g transform="translate(400, 0)">
			<use href="#card" />
			<use href="#number-4" transform="translate(-5, 10) scale(0.7)" />
			<use href="#number-4" transform="translate(120, 180) rotate(180) translate(-5, 10) scale(0.7)" />
			<use href="#suit-diamonds" transform="translate(60, 90) scale(0.3) translate(-120, -130)" />
		</g>
		<g transform="translate(530, 0)">
			<use href="#card" />
			<use href="#number-5" transform="translate(-5, 10) scale(0.7)" />
			<use href="#number-5" transform="translate(120, 180) rotate(180) translate(-5, 10) scale(0.7)" />
			<use href="#suit-diamonds" transform="translate(60, 90) scale(0.3) translate(-120, -130)" />
		</g>
		<g transform="translate(660, 0)">
			<use href="#card" />
			<use href="#number-6" transform="translate(-5, 10) scale(0.7)" />
			<use href="#number-6" transform="translate(120, 180) rotate(180) translate(-5, 10) scale(0.7)" />
			<use href="#suit-diamonds" transform="translate(60, 90) scale(0.3) translate(-120, -130)" />
		</g>
		<g transform="translate(790, 0)">
			<use href="#card" />
			<use href="#number-7" transform="translate(-5, 10) scale(0.7)" />
			<use href="#number-7" transform="translate(120, 180) rotate(180) translate(-5, 10) scale(0.7)" />
			<use href="#suit-diamonds" transform="translate(60, 90) scale(0.3) translate(-120, -130)" />
		</g>
		<g transform="translate(920, 0)">
			<use href="#card" />
			<use href="#number-8" transform="translate(-5, 10) scale(0.7)" />
			<use href="#number-8" transform="translate(120, 180) rotate(180) translate(-5, 10) scale(0.7)" />
			<use href="#suit-diamonds" transform="translate(60, 90) scale(0.3) translate(-120, -130)" />
		</g>
		<g transform="translate(1050, 0)">
			<use href="#card" />
			<use href="#number-9" transform="translate(-5, 10) scale(0.7)" />
			<use href="#number-9" transform="translate(120, 180) rotate(180) translate(-5, 10) scale(0.7)" />
			<use href="#suit-diamonds" transform="translate(60, 90) scale(0.3) translate(-120, -130)" />
		</g>
		<g transform="translate(1180, 0)">
			<use href="#card" />
			<use href="#number-10" transform="translate(-5, 10) scale(0.7)" />
			<use href="#number-10" transform="translate(120, 180) rotate(180) translate(-5, 10) scale(0.7)" />
			<use href="#suit-diamonds" transform="translate(60, 90) scale(0.3) translate(-120, -130)" />
		</g>
		<g transform="translate(1310, 0)">
			<use href="#card" />
			<use href="#number-j" transform="translate(-5, 10) scale(0.7)" />
			<use href="#number-j" transform="translate(120, 180) rotate(180) translate(-5, 10) scale(0.7)" />
			<use href="#suit-diamonds" transform="translate(60, 90) scale(0.3) translate(-120, -130)" />
		</g>
		<g transform="translate(1440, 0)">
			<use href="#card" />
			<use href="#number-q" transform="translate(-5, 10) scale(0.7)" />
			<use href="#number-q" transform="translate(120, 180) rotate(180) translate(-5, 10) scale(0.7)" />
			<use href="#suit-diamonds" transform="translate(60, 90) scale(0.3) translate(-120, -130)" />
		</g>
		<g transform="translate(1570, 0)">
			<use href="#card" />
			<use href="#number-k" transform="translate(-5, 10) scale(0.7)" />
			<use href="#number-k" transform="translate(120, 180) rotate(180) translate(-5, 10) scale(0.7)" />
			<use href="#suit-diamonds" transform="translate(60, 90) scale(0.3) translate(-120, -130)" />
		</g>
	</g>
	<g fill="#00000" transform="translate(0, 580)">
		<g transform="translate(10, 0)">
			<use href="#card" />
			<use href="#number-a" transform="translate(-5, 10) scale(0.7)" />
			<use href="#number-a" transform="translate(120, 180) rotate(180) translate(-5, 10) scale(0.7)" />
			<use href="#suit-clubs" transform="translate(60, 90) scale(0.3) translate(-120, -130)" />
		</g>
		<g transform="translate(140, 0)">
			<use href="#card" />
			<use href="#number-2" transform="translate(-5, 10) scale(0.7)" />
			<use href="#number-2" transform="translate(120, 180) rotate(180) translate(-5, 10) scale(0.7)" />
			<use href="#suit-clubs" transform="translate(60, 90) scale(0.3) translate(-120, -130)" />
		</g>
		<g transform="translate(270, 0)">
			<use href="#card" />
			<use href="#number-3" transform="translate(-5, 10) scale(0.7)" />
			<use href="#number-3" transform="translate(120, 180) rotate(180) translate(-5, 10) scale(0.7)" />
			<use href="#suit-clubs" transform="translate(60, 90) scale(0.3) translate(-120, -130)" />
		</g>
		<g transform="translate(400, 0)">
			<use href="#card" />
			<use href="#number-4" transform="translate(-5, 10) scale(0.7)" />
			<use href="#number-4" transform="translate(120, 180) rotate(180) translate(-5, 10) scale(0.7)" />
			<use href="#suit-clubs" transform="translate(60, 90) scale(0.3) translate(-120, -130)" />
		</g>
		<g transform="translate(530, 0)">
			<use href="#card" />
			<use href="#number-5" transform="translate(-5, 10) scale(0.7)" />
			<use href="#number-5" transform="translate(120, 180) rotate(180) translate(-5, 10) scale(0.7)" />
			<use href="#suit-clubs" transform="translate(60, 90) scale(0.3) translate(-120, -130)" />
		</g>
		<g transform="translate(660, 0)">
			<use href="#card" />
			<use href="#number-6" transform="translate(-5, 10) scale(0.7)" />
			<use href="#number-6" transform="translate(120, 180) rotate(180) translate(-5, 10) scale(0.7)" />
			<use href="#suit-clubs" transform="translate(60, 90) scale(0.3) translate(-120, -130)" />
		</g>
		<g transform="translate(790, 0)">
			<use href="#card" />
			<use href="#number-7" transform="translate(-5, 10) scale(0.7)" />
			<use href="#number-7" transform="translate(120, 180) rotate(180) translate(-5, 10) scale(0.7)" />
			<use href="#suit-clubs" transform="translate(60, 90) scale(0.3) translate(-120, -130)" />
		</g>
		<g transform="translate(920, 0)">
			<use href="#card" />
			<use href="#number-8" transform="translate(-5, 10) scale(0.7)" />
			<use href="#number-8" transform="translate(120, 180) rotate(180) translate(-5, 10) scale(0.7)" />
			<use href="#suit-clubs" transform="translate(60, 90) scale(0.3) translate(-120, -130)" />
		</g>
		<g transform="translate(1050, 0)">
			<use href="#card" />
			<use href="#number-9" transform="translate(-5, 10) scale(0.7)" />
			<use href="#number-9" transform="translate(120, 180) rotate(180) translate(-5, 10) scale(0.7)" />
			<use href="#suit-clubs" transform="translate(60, 90) scale(0.3) translate(-120, -130)" />
		</g>
		<g transform="translate(1180, 0)">
			<use href="#card" />
			<use href="#number-10" transform="translate(-5, 10) scale(0.7)" />
			<use href="#number-10" transform="translate(120, 180) rotate(180) translate(-5, 10) scale(0.7)" />
			<use href="#suit-clubs" transform="translate(60, 90) scale(0.3) translate(-120, -130)" />
		</g>
		<g transform="translate(1310, 0)">
			<use href="#card" />
			<use href="#number-j" transform="translate(-5, 10) scale(0.7)" />
			<use href="#number-j" transform="translate(120, 180) rotate(180) translate(-5, 10) scale(0.7)" />
			<use href="#suit-clubs" transform="translate(60, 90) scale(0.3) translate(-120, -130)" />
		</g>
		<g transform="translate(1440, 0)">
			<use href="#card" />
			<use href="#number-q" transform="translate(-5, 10) scale(0.7)" />
			<use href="#number-q" transform="translate(120, 180) rotate(180) translate(-5, 10) scale(0.7)" />
			<use href="#suit-clubs" transform="translate(60, 90) scale(0.3) translate(-120, -130)" />
		</g>
		<g transform="translate(1570, 0)">
			<use href="#card" />
			<use href="#number-k" transform="translate(-5, 10) scale(0.7)" />
			<use href="#number-k" transform="translate(120, 180) rotate(180) translate(-5, 10) scale(0.7)" />
			<use href="#suit-clubs" transform="translate(60, 90) scale(0.3) translate(-120, -130)" />
		</g>
	</g>
</svg>
